<svg width="966" height="945" viewBox="0 0 966 945" fill="none" xmlns="http://www.w3.org/2000/svg">
<g clip-path="url(#clip0_3_215)">
<g opacity="0.099">
<path d="M468.755 937.353L19.744 671.73C5.44901 663.683 -6.80399 650.5 7.12401 641.852L457.734 381.89C464.488 377.696 474.752 374.944 481.637 378.954L952.902 652.781C967.198 661.089 969.763 684.231 955.521 692.618L527.925 936.933C518.951 942.145 508.773 944.925 498.396 944.999C488.019 945.072 477.802 942.437 468.755 937.353Z" fill="#6862E6"/>
<path d="M468.755 561.353L19.744 295.73C5.44901 287.683 -6.80399 274.5 7.12401 265.852L457.734 5.89001C464.488 1.69601 474.752 -1.05599 481.637 2.95401L952.902 276.781C967.198 285.089 969.763 308.231 955.521 316.618L527.925 560.933C518.951 566.145 508.773 568.925 498.396 568.999C488.019 569.072 477.802 566.437 468.755 561.353Z" stroke="#1E1F36"/>
<path d="M468.755 636.353L19.744 370.73C5.44901 362.683 -6.80399 349.5 7.12401 340.852L457.734 80.89C464.488 76.696 474.752 73.944 481.637 77.954L952.902 351.781C967.198 360.089 969.763 383.231 955.521 391.618L527.925 635.933C518.951 641.145 508.773 643.925 498.396 643.999C488.019 644.072 477.802 641.437 468.755 636.353Z" stroke="#1E1F36"/>
</g>
</g>
<g clip-path="url(#clip1_3_215)">
<path d="M723.018 702.203L503.313 572.211C496.318 568.273 490.323 561.821 497.138 557.589L717.625 430.367C720.93 428.315 725.952 426.968 729.321 428.93L959.916 562.937C966.91 567.003 968.166 578.329 961.196 582.433L751.972 701.998C747.581 704.549 742.601 705.909 737.523 705.945C732.445 705.981 727.445 704.691 723.018 702.203Z" fill="#5B36A0"/>
<path d="M723.018 696.203L503.313 566.211C496.318 562.273 490.323 555.821 497.138 551.589L717.625 424.367C720.93 422.315 725.952 420.968 729.321 422.93L959.916 556.937C966.91 561.003 968.166 572.329 961.196 576.433L751.972 695.998C747.581 698.549 742.601 699.909 737.523 699.945C732.445 699.981 727.445 698.691 723.018 696.203Z" fill="#6862E6"/>
<path style="mix-blend-mode:multiply" opacity="0.25" d="M741.133 524.693L697.78 549.46C697.78 549.46 764.563 590.26 778.219 596.006L803.187 560.093" fill="url(#paint0_linear_3_215)"/>
<path style="mix-blend-mode:multiply" opacity="0.25" d="M726.157 643.513L682.792 618.798L639.428 643.565C639.428 643.565 662.013 657.365 683.599 670.038C697.307 660.328 711.027 650.517 726.157 643.513Z" fill="url(#paint1_linear_3_215)"/>
<path style="mix-blend-mode:multiply" opacity="0.46" d="M632.728 490.883L605.223 506.595C605.223 506.595 607.554 520.999 621.211 526.745L657.221 503.658" fill="url(#paint2_linear_3_215)"/>
<path d="M646.192 506.595C655.354 506.595 662.782 501.358 662.782 494.898C662.782 488.438 655.354 483.201 646.192 483.201C637.03 483.201 629.602 488.438 629.602 494.898C629.602 501.358 637.03 506.595 646.192 506.595Z" fill="#68E1FD"/>
<path d="M646.179 493.089C653.042 493.089 658.605 490.809 658.605 487.997C658.605 485.185 653.042 482.905 646.179 482.905C639.316 482.905 633.753 485.185 633.753 487.997C633.753 490.809 639.316 493.089 646.179 493.089Z" fill="#974C26"/>
<path d="M645.73 479.506C645.73 477.21 645.654 474.915 645.474 472.619C645.423 472.02 645.368 471.426 645.308 470.836L645.18 469.669C645.18 469.322 645 468.386 645 468.476C644.923 468.006 644.842 467.54 644.757 467.078C643.402 459.285 640.378 451.878 635.892 445.363C634.204 449.385 633.362 453.712 633.419 458.073C633.419 459.357 633.522 460.639 633.624 461.845V462.602C633.727 463.217 633.842 463.884 633.97 464.448C634.459 466.788 635.114 469.09 635.93 471.336C636.664 473.404 637.56 475.411 638.608 477.339C639.739 479.509 640.965 481.627 642.284 483.688C643.235 485.192 644.231 486.668 645.269 488.113C645.577 485.253 645.718 482.379 645.73 479.506ZM639.21 453.687C639.276 453.392 639.276 453.085 639.21 452.79C639.526 453.114 639.838 453.448 640.145 453.79C639.837 453.702 639.517 453.668 639.197 453.687H639.21Z" fill="#999A1C"/>
<path d="M649.996 481.276C651.266 479.36 652.434 477.378 653.494 475.338C653.776 474.808 654.049 474.278 654.314 473.748L654.839 472.683L655.339 471.58L655.889 470.297C658.96 462.999 660.415 455.123 660.155 447.21C656.553 449.681 653.501 452.868 651.188 456.573C650.524 457.642 649.904 458.737 649.33 459.857L649.074 460.331L649.01 460.537C648.767 461.114 648.523 461.691 648.293 462.281C647.443 464.516 646.753 466.809 646.23 469.143C645.732 471.282 645.402 473.456 645.244 475.646C645.018 478.08 644.907 480.524 644.911 482.969C644.911 484.88 644.911 486.625 645.026 488.305C646.73 486.035 648.446 483.7 649.996 481.276ZM658.452 456.022C658.652 455.796 658.801 455.529 658.887 455.239C658.981 455.684 659.062 456.112 659.131 456.522C658.931 456.322 658.702 456.154 658.452 456.022Z" fill="#999A1C"/>
<path d="M649.907 486.997C651.211 486.348 652.493 485.655 653.75 484.919L654.71 484.329L655.339 483.931L655.954 483.495L656.671 482.969C660.677 480.025 663.998 476.249 666.407 471.9C663.672 472.076 661.003 472.814 658.567 474.068C657.862 474.428 657.183 474.825 656.504 475.235L656.21 475.415L656.107 475.505L655.159 476.21C653.978 477.143 652.865 478.159 651.829 479.25C650.871 480.244 649.993 481.311 649.202 482.443C648.313 483.702 647.458 484.985 646.64 486.291C646.06 487.249 645.509 488.225 644.987 489.216C646.64 488.523 648.293 487.806 649.907 486.997ZM662.615 476.095C662.796 476.038 662.963 475.941 663.102 475.812C663.008 476.086 662.906 476.355 662.794 476.62C662.761 476.441 662.7 476.268 662.615 476.107V476.095ZM645.73 479.506C645.73 477.21 645.654 474.915 645.474 472.619C645.423 472.02 645.368 471.426 645.308 470.836L645.18 469.669C645.18 469.322 645 468.386 645 468.476C644.923 468.006 644.842 467.54 644.757 467.078C643.402 459.285 640.378 451.878 635.892 445.363C634.204 449.385 633.362 453.712 633.419 458.073C633.419 459.357 633.522 460.639 633.624 461.845V462.602C633.727 463.217 633.842 463.884 633.97 464.448C634.459 466.788 635.114 469.09 635.93 471.336C636.664 473.404 637.56 475.411 638.608 477.339C639.739 479.509 640.965 481.627 642.284 483.688C643.235 485.192 644.231 486.668 645.269 488.113C645.577 485.253 645.718 482.379 645.73 479.506ZM639.21 453.687C639.276 453.392 639.276 453.085 639.21 452.79C639.526 453.114 639.838 453.448 640.145 453.79C639.837 453.702 639.517 453.668 639.197 453.687H639.21Z" fill="#999A1C"/>
<path d="M649.996 481.276C651.266 479.36 652.434 477.378 653.494 475.338C653.776 474.808 654.049 474.278 654.314 473.748L654.839 472.683L655.339 471.58L655.889 470.297C658.96 462.999 660.415 455.123 660.155 447.21C656.553 449.681 653.501 452.868 651.188 456.573C650.524 457.642 649.904 458.737 649.33 459.857L649.074 460.331L649.01 460.537C648.767 461.114 648.523 461.691 648.293 462.281C647.443 464.516 646.753 466.809 646.23 469.143C645.732 471.282 645.402 473.456 645.244 475.646C645.018 478.08 644.907 480.524 644.911 482.969C644.911 484.88 644.911 486.625 645.026 488.305C646.73 486.035 648.446 483.7 649.996 481.276ZM658.452 456.022C658.652 455.796 658.801 455.529 658.887 455.239C658.981 455.684 659.062 456.112 659.131 456.522C658.931 456.322 658.702 456.154 658.452 456.022Z" fill="#999A1C"/>
<path d="M649.907 486.997C651.211 486.348 652.493 485.655 653.75 484.919L654.71 484.329L655.339 483.931L655.954 483.495L656.671 482.969C660.677 480.025 663.998 476.249 666.407 471.9C663.672 472.076 661.003 472.814 658.567 474.068C657.862 474.428 657.183 474.825 656.504 475.235L656.21 475.415L656.107 475.505L655.159 476.21C653.978 477.143 652.865 478.159 651.829 479.25C650.871 480.244 649.993 481.312 649.202 482.443C648.313 483.702 647.458 484.985 646.64 486.291C646.06 487.249 645.509 488.225 644.987 489.216C646.64 488.523 648.293 487.806 649.907 486.997ZM662.615 476.095C662.796 476.038 662.963 475.941 663.102 475.812C663.008 476.086 662.906 476.355 662.794 476.62C662.761 476.441 662.7 476.268 662.615 476.107V476.095Z" fill="#999A1C"/>
<path d="M758.35 515.022L734.356 526.565C733.452 527.001 732.683 527.674 732.132 528.514C731.582 529.353 731.27 530.326 731.23 531.33C731.191 532.333 731.425 533.328 731.908 534.208C732.391 535.088 733.105 535.82 733.972 536.325L790.839 569.545C792.068 570.264 793.528 570.48 794.912 570.148C796.297 569.816 797.5 568.961 798.269 567.763L812.092 546.24" fill="#A1482D"/>
<path d="M888.854 459.344L697.524 348.962C696.212 348.206 694.724 347.81 693.21 347.811C691.695 347.813 690.208 348.213 688.898 348.972C687.587 349.731 686.498 350.822 685.741 352.135C684.984 353.448 684.586 354.937 684.586 356.452V471.285C684.586 472.545 684.917 473.784 685.547 474.875C686.176 475.967 687.082 476.874 688.173 477.505L892.146 595.39C892.849 595.798 893.648 596.013 894.462 596.014C895.275 596.014 896.074 595.8 896.778 595.393C897.482 594.985 898.067 594.399 898.473 593.694C898.879 592.989 899.092 592.189 899.09 591.375V477.018C899.088 473.432 898.14 469.911 896.343 466.808C894.546 463.705 891.963 461.13 888.854 459.344Z" fill="#F47B56"/>
<path d="M697.537 357.646L883.089 464.526C885.071 465.669 886.717 467.314 887.861 469.295C889.006 471.277 889.608 473.524 889.609 475.812V561.888C889.608 562.711 889.391 563.52 888.98 564.233C888.568 564.947 887.977 565.54 887.265 565.953C886.553 566.366 885.746 566.584 884.923 566.587C884.1 566.589 883.291 566.375 882.577 565.967L693.348 457.304C692.64 456.897 692.051 456.311 691.642 455.604C691.232 454.897 691.017 454.094 691.017 453.277V361.429C691.017 359.874 691.844 358.437 693.188 357.657C693.848 357.274 694.598 357.071 695.362 357.069C696.125 357.067 696.875 357.266 697.537 357.646Z" fill="white"/>
<path d="M775.611 519.999C777.8 519.577 779.183 517.206 778.701 514.702C778.219 512.198 776.054 510.51 773.865 510.931C771.676 511.353 770.293 513.724 770.775 516.228C771.257 518.732 773.422 520.42 775.611 519.999Z" fill="#AB643C"/>
<path opacity="0.32" d="M747.41 474.427L833.64 526.296L876.235 501.503L800.126 457.15" fill="url(#paint3_linear_3_215)"/>
<path d="M853.97 464.102L760.746 407.192C760.247 406.903 759.68 406.754 759.103 406.758C758.527 406.763 757.962 406.923 757.468 407.22C756.974 407.517 756.568 407.942 756.292 408.449C756.017 408.956 755.883 409.527 755.903 410.104V442.53C755.899 443.116 756.047 443.694 756.332 444.206C756.617 444.718 757.03 445.148 757.53 445.454L850.742 501.158C851.739 501.725 852.962 501.718 853.952 501.138C854.439 500.853 854.842 500.446 855.122 499.956C855.402 499.466 855.548 498.912 855.546 498.348L856.033 468.118C856.069 467.327 855.897 466.54 855.536 465.836C855.174 465.132 854.634 464.533 853.97 464.102Z" fill="#E2AC00"/>
<path d="M831.667 480.789C835.01 485.47 840.89 486.779 844.785 483.726C848.679 480.673 849.128 474.402 845.785 469.733C842.44 465.064 836.56 463.743 832.665 466.796C828.771 469.848 828.323 476.107 831.667 480.789Z" fill="white"/>
<path d="M822.52 458.318L784.497 435.398C784.17 435.245 783.798 435.219 783.454 435.326C783.11 435.433 782.818 435.665 782.635 435.976C782.452 436.287 782.392 436.656 782.467 437.009C782.541 437.362 782.744 437.675 783.037 437.886L821.059 460.806C821.386 460.959 821.758 460.985 822.102 460.878C822.446 460.771 822.738 460.539 822.921 460.228C823.104 459.917 823.164 459.549 823.09 459.195C823.016 458.842 822.813 458.529 822.52 458.318ZM820.957 467.63L768.547 436.039C768.226 435.929 767.876 435.935 767.559 436.056C767.242 436.176 766.978 436.405 766.811 436.701C766.645 436.997 766.588 437.342 766.65 437.675C766.713 438.009 766.89 438.31 767.151 438.527L819.496 470.13C819.823 470.283 820.195 470.309 820.539 470.202C820.883 470.095 821.175 469.863 821.358 469.552C821.541 469.241 821.601 468.873 821.527 468.519C821.453 468.166 821.25 467.853 820.957 467.642V467.63Z" fill="#F2F2F2"/>
<path d="M835.369 470.387L742.196 413.49C741.697 413.201 741.13 413.052 740.553 413.056C739.977 413.061 739.412 413.221 738.918 413.518C738.424 413.815 738.018 414.24 737.742 414.747C737.467 415.254 737.333 415.825 737.353 416.402V448.813C737.345 449.401 737.49 449.98 737.773 450.495C738.056 451.01 738.468 451.443 738.968 451.751L832.179 507.454C833.187 508.034 834.429 508.024 835.427 507.429C835.918 507.136 836.322 506.718 836.597 506.218C836.873 505.717 837.011 505.152 836.996 504.581L837.483 474.351C837.505 473.564 837.321 472.784 836.95 472.089C836.58 471.394 836.035 470.808 835.369 470.387Z" fill="#F47B56"/>
<path d="M813.065 487.074C816.409 491.755 822.289 493.064 826.184 490.011C830.078 486.958 830.526 480.686 827.183 476.018C823.839 471.348 817.959 470.028 814.065 473.08C810.17 476.133 809.722 482.392 813.065 487.074Z" fill="white"/>
<path d="M803.918 464.602L765.87 441.682C765.543 441.529 765.171 441.503 764.827 441.61C764.483 441.717 764.191 441.949 764.008 442.26C763.825 442.571 763.765 442.94 763.84 443.293C763.914 443.646 764.117 443.959 764.41 444.17L802.432 467.09C802.759 467.243 803.131 467.269 803.475 467.162C803.819 467.055 804.111 466.823 804.294 466.512C804.477 466.201 804.537 465.833 804.463 465.479C804.389 465.126 804.186 464.813 803.893 464.602H803.918ZM802.343 473.978L749.946 442.336C749.619 442.183 749.247 442.158 748.903 442.265C748.558 442.372 748.266 442.604 748.084 442.915C747.901 443.226 747.841 443.595 747.916 443.948C747.99 444.301 748.193 444.614 748.486 444.825L800.895 476.415C801.222 476.568 801.594 476.594 801.938 476.487C802.282 476.38 802.574 476.148 802.757 475.837C802.94 475.526 803 475.157 802.925 474.804C802.851 474.451 802.648 474.138 802.355 473.927L802.343 473.978Z" fill="#F2F2F2"/>
<path d="M811.99 474.21L718.79 417.313C718.291 417.024 717.724 416.874 717.147 416.879C716.571 416.884 716.006 417.043 715.512 417.34C715.018 417.637 714.612 418.062 714.337 418.569C714.062 419.076 713.928 419.647 713.948 420.224V452.636C713.944 453.222 714.092 453.8 714.377 454.312C714.662 454.824 715.075 455.254 715.575 455.56L808.786 511.264C809.794 511.844 811.036 511.834 812.035 511.238C812.525 510.945 812.929 510.527 813.205 510.027C813.48 509.527 813.618 508.962 813.603 508.391L814.09 478.16C814.111 477.376 813.928 476.601 813.56 475.909C813.192 475.216 812.651 474.631 811.99 474.21Z" fill="#68E1FD"/>
<path d="M811.99 474.21L718.79 417.313C718.291 417.024 717.724 416.874 717.147 416.879C716.571 416.884 716.006 417.043 715.512 417.34C715.018 417.637 714.612 418.062 714.337 418.569C714.062 419.076 713.928 419.647 713.948 420.224V452.636C713.944 453.222 714.092 453.8 714.377 454.312C714.662 454.824 715.075 455.254 715.575 455.56L808.786 511.264C809.794 511.844 811.036 511.834 812.035 511.238C812.525 510.945 812.929 510.527 813.205 510.027C813.48 509.527 813.618 508.962 813.603 508.391L814.09 478.16C814.111 477.376 813.928 476.601 813.56 475.909C813.192 475.216 812.651 474.631 811.99 474.21Z" fill="#68E1FD"/>
<path d="M789.673 490.896C793.016 495.577 798.897 496.886 802.791 493.833C806.686 490.78 807.134 484.508 803.791 479.84C800.447 475.171 794.566 473.85 790.672 476.903C786.778 479.955 786.368 486.214 789.672 490.896H789.673Z" fill="white"/>
<path d="M780.526 468.425L742.491 445.505C742.164 445.352 741.792 445.326 741.448 445.433C741.104 445.54 740.812 445.772 740.629 446.083C740.446 446.394 740.386 446.762 740.46 447.116C740.534 447.469 740.737 447.782 741.03 447.993L779.053 470.913C779.38 471.066 779.752 471.092 780.096 470.985C780.44 470.878 780.732 470.646 780.915 470.335C781.098 470.024 781.158 469.655 781.083 469.302C781.009 468.949 780.806 468.636 780.513 468.425H780.526ZM778.95 477.75L726.541 446.158C726.214 446.005 725.842 445.98 725.498 446.087C725.153 446.194 724.861 446.426 724.679 446.737C724.496 447.048 724.436 447.417 724.511 447.77C724.585 448.123 724.788 448.436 725.081 448.647L777.49 480.237C777.817 480.39 778.189 480.416 778.533 480.309C778.877 480.202 779.169 479.97 779.352 479.659C779.535 479.348 779.595 478.979 779.52 478.626C779.446 478.273 779.243 477.96 778.95 477.749V477.75Z" fill="#F2F2F2"/>
<path d="M689.672 471.028C683.648 476.22 679.094 482.903 676.464 490.408C671.826 503.235 683.42 524.192 683.42 524.192L701.458 509.892" fill="#FF8F6F"/>
<path d="M687.724 640.602L682.831 637.896L684.111 630.893C684.111 630.893 691.401 631.585 692.041 634.176" fill="#003B94"/>
<path d="M689.518 640.5C690.62 639.82 691.773 639.217 692.913 638.614C695.743 637.062 699.831 635.459 701.573 632.547C701.93 631.958 702.099 631.275 702.058 630.587C702.017 629.9 701.768 629.241 701.343 628.699C698.78 625.595 693.169 630.7 690.299 627.263C689.736 626.583 689.467 615.796 689.467 615.796L678.552 618.746C678.552 618.746 676.707 640.422 676.912 641.756C677.117 643.09 680.871 644.322 680.871 644.322C681.989 644.084 683.056 643.65 684.022 643.039C685.162 642.205 684.124 632.034 685.585 633.458C687.045 634.882 687.685 640.448 687.685 640.448C688.292 640.54 688.907 640.558 689.518 640.499V640.5Z" fill="#F47B56"/>
<path d="M708.568 651.08L703.674 648.413L704.954 641.41C704.954 641.41 712.244 642.103 712.884 644.693" fill="#003B94"/>
<path d="M710.412 650.978C711.514 650.298 712.667 649.696 713.807 649.093C716.638 647.541 720.725 645.938 722.467 643.026C722.824 642.437 722.993 641.754 722.952 641.066C722.911 640.379 722.662 639.72 722.237 639.178C719.674 636.074 714.063 641.179 711.194 637.742C710.63 637.062 710.361 626.275 710.361 626.275L699.446 629.225C699.446 629.225 697.589 650.978 697.794 652.261C697.999 653.543 701.752 654.826 701.752 654.826C702.87 654.588 703.937 654.154 704.904 653.543C706.044 652.71 705.006 642.539 706.467 643.963C707.927 645.386 708.567 650.953 708.567 650.953C709.179 651.037 709.798 651.046 710.412 650.978Z" fill="#F47B56"/>
<path d="M673.005 580.614L669.789 623.672C669.789 623.672 674.914 630.752 692.093 626.814L692.259 597.788M692.849 589.144C692.477 592.85 692.849 633.74 692.849 633.74C692.849 633.74 697.601 642.641 718.291 633.74L717.996 598.994" fill="#3E2928"/>
<path d="M671.403 594.838C672.813 595.813 673.299 590.798 674.773 591.658C680.132 594.775 685.821 597.287 691.734 599.148H691.862C692.003 599.079 692.156 599.04 692.313 599.032C692.469 599.024 692.626 599.047 692.773 599.101C692.92 599.155 693.055 599.238 693.169 599.345C693.283 599.453 693.375 599.582 693.438 599.725C697.091 600.816 700.809 601.673 704.571 602.29C709.401 603.06 713.397 599.482 718.355 599.238C718.355 580.23 718.445 526.129 710.361 514.586L686.443 506.531C686.328 508.506 674.837 521.845 675.118 538.109C675.438 556.437 673.056 573.727 672.646 579.46C672.582 580.435 671.455 593.8 671.403 594.838Z" fill="#3E2928"/>
<path d="M712.564 492.73L710.361 514.534C710.361 514.534 692.516 515.253 684.829 509.943V491.447" fill="#FF8F6F"/>
<path d="M735.252 478.378L733.433 480.866C734.403 478.842 735.259 476.766 735.995 474.646C736.508 473.196 734.189 472.619 733.677 474.068L733.407 474.812C733.63 474.042 733.839 473.269 734.035 472.49C734.076 472.337 734.085 472.177 734.064 472.02C734.042 471.863 733.989 471.712 733.909 471.575C733.828 471.439 733.721 471.32 733.594 471.225C733.467 471.13 733.322 471.062 733.169 471.024C733.015 470.985 732.855 470.978 732.698 471.002C732.542 471.026 732.391 471.081 732.256 471.164C732.121 471.247 732.003 471.356 731.911 471.484C731.818 471.613 731.752 471.759 731.716 471.913C731.214 473.926 730.611 475.912 729.91 477.865C730.302 476.131 730.584 474.374 730.756 472.605C730.91 471.08 728.514 471.144 728.373 472.605C728.174 474.619 727.814 476.614 727.297 478.57C727.297 477.886 727.233 477.202 727.105 476.518C727.088 476.347 727.034 476.182 726.948 476.034C726.862 475.886 726.745 475.758 726.605 475.658C726.54 475.39 726.463 475.124 726.375 474.863C726.285 474.594 726.102 474.366 725.86 474.218C725.618 474.071 725.331 474.014 725.051 474.057C724.771 474.1 724.515 474.24 724.328 474.454C724.141 474.667 724.036 474.939 724.03 475.223L723.876 484.201C723.443 485.131 722.877 485.996 722.198 486.766C723.351 487.564 724.463 488.42 725.529 489.331C726.48 490.136 727.387 490.992 728.245 491.896C729.011 490.942 729.75 489.967 730.461 488.972C730.549 488.897 730.627 488.811 730.691 488.715C732.825 485.554 735.029 482.441 737.302 479.378C738.25 478.326 736.162 477.159 735.252 478.378Z" fill="#FFB5A9"/>
<path d="M701.24 472.85C701.24 472.85 709.67 475.12 713.09 480.545C715.232 484.301 717.12 488.196 718.74 492.205L724.965 482.52C724.965 482.52 732.524 484.842 735.521 488.562C735.521 488.562 726.554 508.185 718.739 509.866C710.925 511.546 702.623 498.348 702.623 498.348C702.623 498.348 700.907 503.863 701.24 497.976" fill="#FF8F6F"/>
<path d="M706.595 493.82C704.144 491.823 702.295 489.186 701.253 486.202C700.24 482.752 701.509 479.724 702.687 476.518C703.963 473.339 704.708 469.972 704.891 466.552C704.993 463.192 704.609 459.832 704.378 456.483C704.345 456.34 704.345 456.19 704.378 456.047C703.251 452.264 700.945 449.057 696.398 448.672C684.624 447.672 683.958 460.729 684.048 466.039C684.138 471.349 684.701 474.94 680.794 477.159C676.886 479.378 674.068 485.201 677.796 489.909C681.524 494.615 678.18 492.897 675.695 497.078C673.21 501.259 673.85 506.48 678.949 508.365C684.048 510.25 707.748 506.71 709.925 504.517C710.698 503.633 711.098 502.484 711.04 501.311C710.509 498.36 708.931 495.7 706.595 493.82Z" fill="#007F68"/>
<path d="M718.176 386.132C720.172 389.008 721.325 392.384 721.506 395.88C721.729 397.481 721.341 399.106 720.418 400.433C720.025 400.866 719.5 401.155 718.924 401.255C718.348 401.355 717.756 401.26 717.24 400.985C716.593 400.727 716.008 400.333 715.524 399.831C715.089 399.423 714.718 398.951 714.422 398.433L714.115 397.83C714.031 397.988 713.928 398.134 713.807 398.266C713.502 398.504 713.14 398.659 712.757 398.715C712.116 398.834 711.455 398.753 710.861 398.484C709.445 397.87 708.266 396.812 707.504 395.47C706.585 394.011 706.072 392.333 706.018 390.609C705.924 389.919 705.982 389.218 706.188 388.553C706.394 387.888 706.743 387.277 707.21 386.761C707.616 386.369 708.132 386.112 708.689 386.025C709.246 385.937 709.817 386.024 710.323 386.273C710.836 386.478 711.309 386.773 711.719 387.146C712.069 387.443 712.378 387.783 712.641 388.159L712.871 388.569V387.428L715.434 388.428L715.69 395.637C715.708 396.153 715.868 396.654 716.152 397.086C716.392 397.503 716.761 397.831 717.202 398.022C718.44 398.51 719.012 397.441 718.919 394.816C718.79 392.216 717.933 389.705 716.446 387.569C715.111 385.397 713.125 383.701 710.771 382.721C709.917 382.286 708.952 382.119 708.001 382.24C707.051 382.361 706.159 382.766 705.441 383.401C704.676 384.171 704.093 385.103 703.736 386.129C703.379 387.154 703.257 388.247 703.379 389.326C703.525 392.075 704.41 394.734 705.941 397.022C707.159 399.281 709.079 401.081 711.411 402.152C712.223 402.492 713.095 402.662 713.974 402.652C714.546 402.691 715.119 402.585 715.639 402.345L716.152 402.062L717.702 404.948L717.445 405.128C717.202 405.265 716.95 405.385 716.69 405.487C716.28 405.664 715.85 405.785 715.408 405.847C714.843 405.923 714.27 405.923 713.705 405.847C712.962 405.758 712.235 405.573 711.54 405.295C709.567 404.445 707.814 403.155 706.415 401.524C704.757 399.689 703.415 397.591 702.444 395.316C701.471 393.143 700.915 390.806 700.804 388.428C700.666 386.428 701.074 384.429 701.983 382.644C702.737 381.146 704.041 379.998 705.621 379.437C707.277 378.891 709.076 378.983 710.668 379.694C713.777 381.01 716.401 383.26 718.176 386.132ZM712.526 395.252C712.946 394.714 713.136 394.031 713.051 393.353C713.031 392.517 712.797 391.701 712.372 390.981C712.025 390.353 711.48 389.857 710.822 389.57C710.57 389.44 710.284 389.389 710.002 389.426C709.72 389.463 709.457 389.584 709.246 389.775C709.025 390.027 708.86 390.323 708.763 390.644C708.666 390.965 708.639 391.303 708.683 391.635C708.712 392.481 708.963 393.304 709.413 394.02C709.783 394.672 710.353 395.185 711.04 395.483C711.28 395.606 711.554 395.65 711.821 395.609C712.087 395.567 712.334 395.442 712.526 395.252ZM869.433 525.013C871.432 527.887 872.585 531.264 872.763 534.761C872.986 536.362 872.598 537.987 871.675 539.314C871.281 539.745 870.756 540.032 870.181 540.132C869.606 540.232 869.014 540.138 868.498 539.866C867.852 539.604 867.268 539.211 866.781 538.712C866.348 538.301 865.977 537.83 865.679 537.313L865.372 536.711C865.285 536.867 865.182 537.013 865.064 537.147C864.76 537.387 864.398 537.542 864.014 537.596C863.379 537.724 862.72 537.647 862.131 537.378C860.713 536.761 859.534 535.698 858.774 534.351C857.846 532.89 857.329 531.207 857.275 529.477C857.178 528.787 857.234 528.085 857.44 527.42C857.646 526.754 857.997 526.143 858.467 525.629C858.871 525.238 859.385 524.982 859.94 524.895C860.495 524.808 861.063 524.894 861.567 525.142C862.081 525.346 862.554 525.641 862.963 526.014C863.313 526.316 863.623 526.661 863.886 527.04L864.129 527.45V526.309L866.691 527.296L866.948 534.505C866.97 535.02 867.129 535.52 867.408 535.954C867.65 536.371 868.018 536.699 868.459 536.89C869.74 537.378 870.266 536.313 870.189 533.684C870.059 531.081 869.202 528.565 867.716 526.424C866.381 524.26 864.4 522.569 862.054 521.589C861.201 521.154 860.237 520.986 859.287 521.104C858.336 521.223 857.444 521.624 856.724 522.256C855.962 523.035 855.386 523.976 855.038 525.009C854.69 526.041 854.579 527.139 854.714 528.22C854.857 530.969 855.742 533.628 857.275 535.915C858.541 538.12 860.481 539.86 862.81 540.879C863.622 541.217 864.493 541.392 865.372 541.392C865.944 541.425 866.515 541.32 867.037 541.084L867.55 540.802L869.1 543.688L868.844 543.868C868.6 544.005 868.348 544.125 868.088 544.227C867.676 544.397 867.246 544.517 866.807 544.586C866.237 544.662 865.66 544.662 865.09 544.586C864.351 544.493 863.628 544.303 862.938 544.022C860.966 543.176 859.213 541.89 857.813 540.263C856.155 538.423 854.814 536.321 853.843 534.043C852.869 531.87 852.313 529.534 852.203 527.155C852.064 525.16 852.471 523.164 853.381 521.383C854.137 519.884 855.439 518.732 857.019 518.164C858.68 517.624 860.482 517.715 862.079 518.421C865.153 519.806 867.722 522.109 869.433 525.013ZM863.783 534.133C863.994 533.868 864.149 533.563 864.242 533.237C864.334 532.911 864.361 532.57 864.321 532.234C864.299 531.397 864.061 530.58 863.63 529.862C863.289 529.233 862.748 528.736 862.092 528.451C861.841 528.319 861.556 528.267 861.275 528.301C860.993 528.336 860.729 528.455 860.517 528.643C860.292 528.893 860.124 529.188 860.024 529.51C859.925 529.831 859.896 530.17 859.94 530.503C859.97 531.345 860.221 532.163 860.67 532.876C861.039 533.531 861.61 534.048 862.297 534.351C862.536 534.476 862.808 534.522 863.075 534.483C863.342 534.444 863.59 534.321 863.783 534.133Z" fill="#F47B56"/>
<path style="mix-blend-mode:multiply" opacity="0.25" d="M614.139 579.704L570.774 555L527.423 579.754C527.423 579.754 551.545 594.837 573.132 607.51C586.839 597.813 599.022 586.72 614.139 579.704Z" fill="url(#paint4_linear_3_215)"/>
</g>
<g filter="url(#filter0_d_3_215)">
<path d="M533.93 509.881V563.751L575.898 587.786L623.285 559.761V505.891" fill="black"/>
</g>
<path d="M533.93 509.881V563.751L575.898 587.786L623.285 559.761V505.891" fill="#FF9271"/>
<path d="M575.899 533.917V587.787L623.286 559.761V505.891L575.899 533.917Z" fill="#DF5C34"/>
<path d="M533.93 509.88L582.624 482.126L623.286 505.893L575.899 533.918L533.93 509.88Z" fill="#F47B56"/>
<path d="M577.013 494.49C581.95 494.157 586.88 495.242 591.22 497.619C593.706 499.081 595.064 500.607 595.256 502.198C595.448 503.788 594.628 505.173 592.694 506.341C591.777 506.908 590.766 507.307 589.709 507.521C588.84 507.726 587.949 507.816 587.057 507.79L586.083 507.713C586.174 507.93 586.234 508.159 586.263 508.393C586.232 508.947 586.055 509.482 585.75 509.945C585.243 510.805 584.519 511.517 583.65 512.01C581.625 513.213 579.305 513.826 576.95 513.78C574.514 513.846 572.106 513.238 569.993 512.023C567.994 510.843 566.97 509.457 566.893 507.867C566.901 507.025 567.145 506.202 567.598 505.492C568.051 504.782 568.694 504.214 569.455 503.852C570.185 503.397 570.98 503.055 571.812 502.839C572.476 502.647 573.159 502.531 573.849 502.493H574.554L573.272 501.723L576.872 499.479L585.212 504.391C585.85 504.734 586.563 504.914 587.287 504.914C588.011 504.914 588.724 504.734 589.362 504.391C591.131 503.288 590.499 501.839 587.467 500.043C584.245 498.269 580.582 497.454 576.911 497.696C573.021 497.744 569.215 498.838 565.893 500.864C562.87 502.754 561.371 505.007 561.397 507.624C561.397 510.188 562.998 512.472 566.111 514.306C569.509 516.206 573.367 517.125 577.257 516.961C581.129 517.024 584.943 516.012 588.274 514.036C589.427 513.353 590.461 512.486 591.336 511.471C591.921 510.85 592.358 510.105 592.616 509.291L592.796 508.483L597.549 508.752C597.557 508.897 597.557 509.042 597.549 509.188C597.462 509.581 597.346 509.966 597.203 510.342C596.997 510.945 596.721 511.522 596.383 512.062C595.895 512.789 595.328 513.459 594.693 514.062C593.855 514.87 592.931 515.585 591.938 516.192C589.078 517.909 585.91 519.05 582.612 519.552C579.018 520.18 575.349 520.244 571.735 519.744C568.45 519.357 565.275 518.319 562.396 516.691C560.071 515.46 558.209 513.507 557.092 511.125C556.635 510.086 556.399 508.963 556.399 507.828C556.399 506.694 556.635 505.571 557.092 504.532C558.199 502.107 560.041 500.092 562.358 498.773C566.772 496.06 571.833 494.582 577.013 494.49ZM581.676 507.752C581.506 506.861 580.906 506.112 580.075 505.751C579.066 505.156 577.916 504.842 576.745 504.84C575.656 504.799 574.579 505.075 573.644 505.635C573.267 505.819 572.949 506.103 572.723 506.456C572.497 506.809 572.372 507.217 572.363 507.636C572.48 508.526 573.053 509.29 573.875 509.65C574.907 510.24 576.081 510.537 577.269 510.51C578.412 510.539 579.539 510.245 580.523 509.663C580.888 509.496 581.196 509.226 581.41 508.887C581.624 508.548 581.735 508.153 581.728 507.752" fill="#3E2928"/>
<defs>
<filter id="filter0_d_3_215" x="483.93" y="480.891" width="189.355" height="181.895" filterUnits="userSpaceOnUse" color-interpolation-filters="sRGB">
<feFlood flood-opacity="0" result="BackgroundImageFix"/>
<feColorMatrix in="SourceAlpha" type="matrix" values="0 0 0 0 0 0 0 0 0 0 0 0 0 0 0 0 0 0 127 0" result="hardAlpha"/>
<feOffset dy="25"/>
<feGaussianBlur stdDeviation="25"/>
<feColorMatrix type="matrix" values="0 0 0 0 0.209139 0 0 0 0 0.0691446 0 0 0 0 0.478091 0 0 0 0.497159 0"/>
<feBlend mode="normal" in2="BackgroundImageFix" result="effect1_dropShadow_3_215"/>
<feBlend mode="normal" in="SourceGraphic" in2="effect1_dropShadow_3_215" result="shape"/>
</filter>
<linearGradient id="paint0_linear_3_215" x1="7146.69" y1="3150.44" x2="5752.49" y2="5042.13" gradientUnits="userSpaceOnUse">
<stop stop-color="#78B46A"/>
<stop offset="0.03" stop-color="#7F3500"/>
<stop offset="1" stop-color="white"/>
</linearGradient>
<linearGradient id="paint1_linear_3_215" x1="7767.34" y1="2080.11" x2="4843.27" y2="5290.32" gradientUnits="userSpaceOnUse">
<stop stop-color="#78B46A"/>
<stop offset="0.03" stop-color="#7F3500"/>
<stop offset="1" stop-color="white"/>
</linearGradient>
<linearGradient id="paint2_linear_3_215" x1="4799.38" y1="1274.97" x2="2606.95" y2="3682.21" gradientUnits="userSpaceOnUse">
<stop stop-color="#78B46A"/>
<stop offset="0.03" stop-color="#7F3500"/>
<stop offset="1" stop-color="white"/>
</linearGradient>
<linearGradient id="paint3_linear_3_215" x1="11184.3" y1="4646.64" x2="9870.47" y2="3687.32" gradientUnits="userSpaceOnUse">
<stop stop-color="white" stop-opacity="0"/>
<stop offset="0.99" stop-color="#DC841E"/>
</linearGradient>
<linearGradient id="paint4_linear_3_215" x1="7654" y1="2000.97" x2="4687.14" y2="5258.24" gradientUnits="userSpaceOnUse">
<stop stop-color="#78B46A"/>
<stop offset="0.03" stop-color="#7F3500"/>
<stop offset="1" stop-color="white"/>
</linearGradient>
<clipPath id="clip0_3_215">
<rect width="966" height="945" fill="white"/>
</clipPath>
<clipPath id="clip1_3_215">
<rect width="472" height="359" fill="white" transform="translate(494 347)"/>
</clipPath>
</defs>
</svg>
